<?xml version="1.0" encoding="UTF-8" standalone="no"?>
<!DOCTYPE svg PUBLIC "-//W3C//DTD SVG 1.1//EN" "http://www.w3.org/Graphics/SVG/1.1/DTD/svg11.dtd">
<svg xmlns="http://www.w3.org/2000/svg" xmlns:xl="http://www.w3.org/1999/xlink" version="1.1" viewBox="399 300 15 13" width="15pt" height="13pt" xmlns:dc="http://purl.org/dc/elements/1.1/">
    <metadata> Produced by OmniGraffle 7.3
        <dc:date>2017-04-26 11:57:43 +0000</dc:date>
    </metadata>
    <defs/>
    <g stroke="none" stroke-opacity="1" stroke-dasharray="none" fill="none" fill-opacity="1">
        <title>Canvas 1</title>
        <g>
            <title>CV Full - Variant 4 - Horizontal Header</title>
            <path d="M 399.954 312.22 L 399.954 307.598 L 404.287 307.598 L 404.287 308.753 L 408.331 308.753 L 408.331 307.598 L 412.665 307.598 L 412.665 312.22 Z M 407.754 308.176 L 404.864 308.176 L 404.864 306.442 L 407.754 306.442 Z M 404.287 302.397 L 408.331 302.397 L 412.665 302.397 L 412.665 307.02 L 408.331 307.02 L 408.331 305.864 L 404.287 305.864 L 404.287 307.02 L 399.954 307.02 L 399.954 302.397 Z M 404.864 300.952 L 407.754 300.952 L 407.754 301.819 L 404.864 301.819 Z M 408.331 301.819 L 408.331 300.375 L 404.287 300.375 L 404.287 301.819 L 399.375 301.819 L 399.375 312.798 L 413.243 312.798 L 413.243 301.819 Z" fill="#CC0033"/>
        </g>
    </g>
</svg>
