<?xml version="1.0" encoding="UTF-8" standalone="no"?>
<!DOCTYPE svg PUBLIC "-//W3C//DTD SVG 1.1//EN" "http://www.w3.org/Graphics/SVG/1.1/DTD/svg11.dtd">
<svg xmlns="http://www.w3.org/2000/svg" xmlns:xl="http://www.w3.org/1999/xlink" version="1.1" viewBox="15 15 266 34" width="266pt" height="34pt" xmlns:dc="http://purl.org/dc/elements/1.1/">
  <metadata> Produced by OmniGraffle 7.2.2 
    <dc:date>2017-03-31 12:14:54 +0000</dc:date>
  </metadata>
  <defs/>
  <g stroke="none" stroke-opacity="1" stroke-dasharray="none" fill="none" fill-opacity="1">
    <title>Canvas 1</title>
    <g>
      <title>Layer 1</title>
      <path d="M 38.229 39.2996 L 24.076 39.2996 L 24.076 24.4816 L 38.229 24.4816 Z M 53.683 15.9646 L 20.008 15.9646 C 17.762 15.9646 15.942 17.8716 15.942 20.2216 L 15.942 43.5596 C 15.942 45.9116 17.762 47.8186 20.008 47.8186 L 42.295 47.8186 C 44.541 47.8186 46.362 45.9116 46.362 43.5596 L 46.362 24.4816 L 53.683 24.4816 C 55.928 24.4816 57.749 22.5736 57.749 20.2216 C 57.749 17.8716 55.928 15.9646 53.683 15.9646" fill="#CC0033"/>
      <path d="M 71.7783 47.751 L 71.7783 15.946 L 79.4543 15.946 L 79.4543 40.583 L 86.7163 40.583 L 86.7163 47.751 Z" fill="black"/>
      <path d="M 89.979 35.0664 L 89.979 15.9464 L 97.655 15.9464 L 97.655 35.0664 C 97.655 38.6504 99.356 41.1324 103.125 41.1324 C 106.755 41.1324 108.501 38.6054 108.501 35.0194 L 108.501 15.9464 L 116.178 15.9464 L 116.178 35.0194 C 116.178 42.6964 111.765 48.3494 103.032 48.3494 C 94.07 48.3494 89.979 43.0184 89.979 35.0664 Z" fill="black"/>
      <path d="M 128.7246 28.9531 L 128.7246 47.7511 L 121.3266 47.7511 L 121.3266 15.9461 L 129.2306 15.9461 L 141.1816 35.1581 L 141.1816 15.9461 L 148.5816 15.9461 L 148.5816 47.7511 L 140.9966 47.7511 Z" fill="black"/>
      <path d="M 163.7939 33.7334 L 169.4009 33.7334 L 166.5979 25.6904 Z M 171.6079 40.1674 L 161.5889 40.1674 L 158.9669 47.7514 L 151.4319 47.7514 L 162.5539 15.9464 L 170.6429 15.9464 L 182.4089 47.7514 L 174.2729 47.7514 Z" fill="black"/>
      <path d="M 194.1758 23.1162 L 194.1758 47.7512 L 186.5008 47.7512 L 186.5008 23.1162 L 181.1688 23.1162 L 181.1688 15.9462 L 199.4608 15.9462 L 199.4608 23.1162 Z" fill="black"/>
      <path d="M 203.8745 47.751 L 203.8745 15.946 L 218.9495 15.946 L 218.9495 23.116 L 211.5505 23.116 L 211.5505 28.034 L 218.7195 28.034 L 218.7195 35.111 L 211.5505 35.111 L 211.5505 40.583 L 219.0865 40.583 L 219.0865 47.751 Z" fill="black"/>
      <path d="M 250.709 44.2124 C 247.996 46.7854 244.595 48.3494 240.139 48.3494 C 229.567 48.3494 223.224 41.1794 223.224 31.8954 C 223.224 22.7024 229.843 15.3494 240.001 15.3494 C 244.827 15.3494 248.227 16.9114 250.756 19.1174 L 246.205 24.9084 C 245.056 23.8524 242.941 22.5184 240.092 22.5184 C 234.438 22.5184 231.268 26.6554 231.268 31.8494 C 231.268 37.0884 234.806 41.1794 240.139 41.1794 C 242.804 41.1794 244.827 39.9834 246.205 38.7894 Z" fill="black"/>
      <path d="M 280.6782 47.751 L 273.0022 47.751 L 273.0022 35.204 L 261.9712 35.204 L 261.9712 47.751 L 254.2942 47.751 L 254.2942 15.946 L 261.9712 15.946 L 261.9712 27.897 L 273.0022 27.897 L 273.0022 15.946 L 280.6782 15.946 Z" fill="black"/>
    </g>
  </g>
</svg>
