<?xml version="1.0" encoding="UTF-8" standalone="no"?>
<!DOCTYPE svg PUBLIC "-//W3C//DTD SVG 1.1//EN" "http://www.w3.org/Graphics/SVG/1.1/DTD/svg11.dtd">
<svg xmlns="http://www.w3.org/2000/svg" xmlns:xl="http://www.w3.org/1999/xlink" version="1.1" viewBox="66 551 15 15" width="15pt" height="15pt" xmlns:dc="http://purl.org/dc/elements/1.1/">
    <metadata> Produced by OmniGraffle 7.3
        <dc:date>2017-04-26 12:00:34 +0000</dc:date>
    </metadata>
    <defs/>
    <g stroke="none" stroke-opacity="1" stroke-dasharray="none" fill="none" fill-opacity="1">
        <title>Canvas 1</title>
        <g>
            <title>CV Full - Variant 4 - Horizontal Header</title>
            <path d="M 77.0659 564.3959 L 74.0409 559.1519 L 80.0949 559.1519 C 80.0109 561.3599 78.8229 563.2859 77.0659 564.3959 M 73.6079 565.4019 C 70.0239 565.4019 67.1079 562.4859 67.1079 558.9019 C 67.1079 555.4019 69.8899 552.5469 73.3579 552.4149 L 73.3579 558.9019 C 73.3579 558.9249 73.3769 558.9409 73.3829 558.9619 C 73.3889 558.9839 73.3799 559.0059 73.3919 559.0269 L 76.6349 564.6489 C 75.7299 565.1269 74.7009 565.4019 73.6079 565.4019 M 73.8579 552.4149 C 77.2419 552.5439 79.9659 555.2679 80.0949 558.6519 L 73.8579 558.6519 Z M 73.6079 551.9019 C 69.7409 551.9019 66.6079 555.0349 66.6079 558.9019 C 66.6079 562.7679 69.7409 565.9019 73.6079 565.9019 C 77.4749 565.9019 80.6079 562.7679 80.6079 558.9019 C 80.6079 555.0349 77.4749 551.9019 73.6079 551.9019" fill="#CC0033"/>
        </g>
    </g>
</svg>
