<?xml version="1.0" encoding="UTF-8" standalone="no"?>
<!DOCTYPE svg PUBLIC "-//W3C//DTD SVG 1.1//EN" "http://www.w3.org/Graphics/SVG/1.1/DTD/svg11.dtd">
<svg xmlns="http://www.w3.org/2000/svg" xmlns:xl="http://www.w3.org/1999/xlink" version="1.1" viewBox="400 90 15 12" width="15pt" height="1pc" xmlns:dc="http://purl.org/dc/elements/1.1/">
    <metadata> Produced by OmniGraffle 7.3
        <dc:date>2017-04-26 11:59:26 +0000</dc:date>
    </metadata>
    <defs/>
    <g stroke="none" stroke-opacity="1" stroke-dasharray="none" fill="none" fill-opacity="1">
        <title>Canvas 1</title>
        <g>
            <title>CV Full - Variant 4 - Horizontal Header</title>
            <path d="M 413.3396 101.3932 L 401.6726 101.3932 C 401.3516 101.3932 401.0896 101.1312 401.0896 100.8102 L 401.0896 94.6852 L 401.0896 93.8102 L 413.9236 93.8102 L 413.9236 100.8102 C 413.9236 101.1312 413.6606 101.3932 413.3396 101.3932 M 401.0896 91.1852 C 401.0896 90.8632 401.3516 90.6012 401.6726 90.6012 L 404.5896 90.6012 C 404.9116 90.6012 405.1726 90.8632 405.1726 91.1852 L 405.1726 91.4762 L 405.1726 92.0602 L 405.7566 92.0602 L 413.3396 92.0602 C 413.6606 92.0602 413.9236 92.3212 413.9236 92.6432 L 413.9236 93.2262 L 401.0896 93.2262 L 401.0896 92.6432 Z M 413.3396 91.4762 L 405.7566 91.4762 L 405.7566 91.1852 C 405.7566 90.5402 405.2346 90.0182 404.5896 90.0182 L 401.6726 90.0182 C 401.0286 90.0182 400.5066 90.5402 400.5066 91.1852 L 400.5066 92.6432 L 400.5066 94.6852 L 400.5066 100.8102 C 400.5066 101.4542 401.0286 101.9762 401.6726 101.9762 L 413.3396 101.9762 C 413.9846 101.9762 414.5066 101.4542 414.5066 100.8102 L 414.5066 92.6432 C 414.5066 91.9992 413.9846 91.4762 413.3396 91.4762" fill="#CC0033"/>
        </g>
    </g>
</svg>
