<?xml version="1.0" encoding="UTF-8" standalone="no"?>
<!DOCTYPE svg PUBLIC "-//W3C//DTD SVG 1.1//EN" "http://www.w3.org/Graphics/SVG/1.1/DTD/svg11.dtd">
<svg xmlns:dc="http://purl.org/dc/elements/1.1/" version="1.1" xmlns:xl="http://www.w3.org/1999/xlink" xmlns="http://www.w3.org/2000/svg" viewBox="-401 -476.1625 764.7179 139.325" width="764.7179" height="139.325">
  <defs/>
  <metadata> Produced by OmniGraffle 7.9.2 
    <dc:date>2018-10-30 21:02:34 +0000</dc:date>
  </metadata>
  <g id="Competence_Center" stroke="none" stroke-opacity="1" fill="none" stroke-dasharray="none" fill-opacity="1">
    <title>Competence Center</title>
    <g id="Competence_Center: Inverted Line ">
      <title>Inverted Line </title>
      <g id="Group_245">
        <title>Lunatech</title>
        <g id="Graphic_253">
          <path d="M -225 -361.6864 L -225 -451.31867 L -203.36764 -451.31867 L -203.36764 -381.88713 L -182.902 -381.88713 L -182.902 -361.6864 Z" fill="white"/>
        </g>
        <g id="Graphic_252">
          <path d="M -173.70712 -397.4339 L -173.70712 -451.31755 L -152.07475 -451.31755 L -152.07475 -397.4339 C -152.07475 -387.33355 -147.28103 -380.3388 -136.6593 -380.3388 C -126.4293 -380.3388 -121.50875 -387.46036 -121.50875 -397.56636 L -121.50875 -451.31755 L -99.87357 -451.31755 L -99.87357 -397.56636 C -99.87357 -375.9312 -112.31021 -360 -136.92139 -360 C -162.17794 -360 -173.70712 -375.02373 -173.70712 -397.4339 Z" fill="white"/>
        </g>
        <g id="Graphic_251">
          <path d="M -64.51497 -414.6623 L -64.51497 -361.6861 L -85.36388 -361.6861 L -85.36388 -451.3184 L -63.08897 -451.3184 L -29.408882 -397.1755 L -29.408882 -451.3184 L -8.554336 -451.3184 L -8.554336 -361.6861 L -29.930245 -361.6861 Z" fill="white"/>
        </g>
        <g id="Graphic_250">
          <path d="M 34.31669 -401.19055 L 50.118236 -401.19055 L 42.218873 -423.8572 Z M 56.337964 -383.05836 L 28.1026 -383.05836 L 20.713327 -361.68527 L -.5216727 -361.68527 L 30.822145 -451.31755 L 53.61842 -451.31755 L 86.77715 -361.68527 L 63.84842 -361.68527 Z" fill="white"/>
        </g>
        <g id="Graphic_249">
          <path d="M 119.93841 -431.11175 L 119.93841 -361.68584 L 98.30886 -361.68584 L 98.30886 -431.11175 L 83.28232 -431.11175 L 83.28232 -451.3181 L 134.8325 -451.3181 L 134.8325 -431.11175 Z" fill="white"/>
        </g>
        <g id="Graphic_248">
          <path d="M 147.27111 -361.6864 L 147.27111 -451.31867 L 189.7552 -451.31867 L 189.7552 -431.1123 L 168.90347 -431.1123 L 168.90347 -417.2525 L 189.10702 -417.2525 L 189.10702 -397.3082 L 168.90347 -397.3082 L 168.90347 -381.88713 L 190.1413 -381.88713 L 190.1413 -361.6864 Z" fill="white"/>
        </g>
        <g id="Graphic_247">
          <path d="M 279.25925 -371.6588 C 271.61352 -364.40764 262.02888 -360 249.47106 -360 C 219.67725 -360 201.80152 -380.20636 201.80152 -406.37036 C 201.80152 -432.2779 220.45506 -453 249.08215 -453 C 262.6827 -453 272.26452 -448.598 279.3917 -442.3811 L 266.56615 -426.061 C 263.32806 -429.037 257.3676 -432.79645 249.3386 -432.79645 C 233.4046 -432.79645 224.47097 -421.13764 224.47097 -406.5 C 224.47097 -391.73555 234.4417 -380.20636 249.47106 -380.20636 C 256.98152 -380.20636 262.6827 -383.5769 266.56615 -386.9418 Z" fill="white"/>
        </g>
        <g id="Graphic_246">
          <path d="M 363.7179 -361.6864 L 342.08554 -361.6864 L 342.08554 -397.04613 L 310.99817 -397.04613 L 310.99817 -361.6864 L 289.363 -361.6864 L 289.363 -451.31867 L 310.99817 -451.31867 L 310.99817 -417.6386 L 342.08554 -417.6386 L 342.08554 -451.31867 L 363.7179 -451.31867 Z" fill="white"/>
        </g>
      </g>
      <g id="Group_254">
        <title>Plant Icon</title>
        <g id="Graphic_259">
          <path d="M -313.48993 -391.13686 C -328.279 -374.28813 -343.50853 -373.20344 -343.43387 -372.1818 C -348.78474 -411.44687 -322.93747 -440.3173 -322.93747 -440.3173 C -328.40965 -435.0776 -332.84413 -429.55867 -336.4294 -423.9136 C -336.1812 -424.3118 -336.01135 -424.58207 -336.01135 -424.58207 C -342.29912 -429.72804 -345.6679 -445.46866 -345.6679 -445.46866 C -344.1879 -426.883 -338.8538 -419.86133 -338.8538 -419.86133 C -338.37603 -420.7388 -337.55296 -422.09737 -336.91093 -423.1352 C -342.37378 -414.32977 -345.7743 -405.23423 -347.7601 -396.39274 C -347.67425 -396.81977 -347.62013 -397.08824 -347.62013 -397.08824 C -351.1737 -407.34775 -363.43943 -415.4451 -363.43943 -415.4451 C -353.6653 -405.7243 -349.11695 -389.10983 -349.11695 -389.10983 C -349.06843 -389.4756 -348.9639 -390.0846 -348.837 -390.7963 C -353.55703 -361.7187 -344.0162 -336.8375 -344.0162 -336.8375 L -330.14536 -336.8375 C -336.70937 -347.24476 -340.57834 -357.36012 -342.53615 -366.92954 C -342.3514 -366.14034 -342.21887 -365.6899 -342.21887 -365.6899 C -326.8195 -372.553 -313.48993 -391.13686 -313.48993 -391.13686 Z" fill="white"/>
        </g>
        <g id="Graphic_258">
          <path d="M -332.75827 -389.69 C -332.75827 -389.69 -338.6541 -430.3803 -264.4195 -429.54426 C -264.4195 -429.54426 -272.92078 -367.42504 -317.8423 -372.11154 C -317.8423 -372.11154 -301.36417 -385.43593 -301.36417 -400.7099 C -301.3623 -400.7099 -314.03118 -405.4252 -332.75827 -389.69 Z" fill="white"/>
        </g>
        <g id="Graphic_257">
          <path d="M -364.0628 -404.1081 C -364.0628 -404.1081 -397.7712 -397.3621 -401 -455.2471 C -401 -455.2471 -348.61303 -451.91373 -350.15465 -416.6631 C -350.15465 -416.6631 -362.1647 -428.7947 -374.93436 -427.9875 C -374.9325 -427.9875 -378.2061 -417.8649 -364.0628 -404.1081 Z" fill="white"/>
        </g>
        <g id="Graphic_256">
          <path d="M -332.86652 -441.3335 C -332.86652 -441.3335 -338.6672 -466.33903 -292.46908 -469.45256 C -292.46908 -469.45256 -294.4922 -430.41453 -322.66684 -431.12805 C -322.66684 -431.12805 -313.126 -440.22 -313.9248 -449.7137 C -313.92666 -449.7155 -322.05094 -452.02905 -332.86652 -441.3335 Z" fill="white"/>
        </g>
        <g id="Graphic_255">
          <path d="M -351.0785 -441.2236 C -351.0785 -441.2236 -369.3054 -447.44524 -353.4189 -476.1625 C -353.4189 -476.1625 -329.2551 -459.8543 -340.61193 -443.34973 C -340.61193 -443.34973 -342.7284 -452.54797 -349.1076 -455.748 C -349.1076 -455.748 -353.72874 -451.802 -351.0785 -441.2236 Z" fill="white"/>
        </g>
      </g>
    </g>
  </g>
</svg>
